<svg xmlns="http://www.w3.org/2000/svg" width="72" height="1600" viewBox="0 0 72 1600">
<defs><filter id="s"><feDropShadow dx="2" dy="0" stdDeviation="2" flood-color="#7e5a86" flood-opacity=".18"/></filter></defs>
<g filter="url(#s)">
<path d="M58,8 V1592" stroke="#efe4f1" stroke-width="8" stroke-linecap="round"/>
<path d="M30,6 Q4,24 30,42 Q54,24 30,6" fill="none" stroke="#f7f2f8" stroke-width="6" stroke-linecap="round"/><circle cx="30" cy="24" r="4.5" fill="#eadced"/><path d="M30,54 Q4,72 30,90 Q54,72 30,54" fill="none" stroke="#f7f2f8" stroke-width="6" stroke-linecap="round"/><circle cx="30" cy="72" r="4.5" fill="#eadced"/><path d="M30,102 Q4,120 30,138 Q54,120 30,102" fill="none" stroke="#f7f2f8" stroke-width="6" stroke-linecap="round"/><circle cx="30" cy="120" r="4.5" fill="#eadced"/><path d="M30,150 Q4,168 30,186 Q54,168 30,150" fill="none" stroke="#f7f2f8" stroke-width="6" stroke-linecap="round"/><circle cx="30" cy="168" r="4.5" fill="#eadced"/><path d="M30,198 Q4,216 30,234 Q54,216 30,198" fill="none" stroke="#f7f2f8" stroke-width="6" stroke-linecap="round"/><circle cx="30" cy="216" r="4.5" fill="#eadced"/><path d="M30,246 Q4,264 30,282 Q54,264 30,246" fill="none" stroke="#f7f2f8" stroke-width="6" stroke-linecap="round"/><circle cx="30" cy="264" r="4.5" fill="#eadced"/><path d="M30,294 Q4,312 30,330 Q54,312 30,294" fill="none" stroke="#f7f2f8" stroke-width="6" stroke-linecap="round"/><circle cx="30" cy="312" r="4.5" fill="#eadced"/><path d="M30,342 Q4,360 30,378 Q54,360 30,342" fill="none" stroke="#f7f2f8" stroke-width="6" stroke-linecap="round"/><circle cx="30" cy="360" r="4.5" fill="#eadced"/><path d="M30,390 Q4,408 30,426 Q54,408 30,390" fill="none" stroke="#f7f2f8" stroke-width="6" stroke-linecap="round"/><circle cx="30" cy="408" r="4.5" fill="#eadced"/><path d="M30,438 Q4,456 30,474 Q54,456 30,438" fill="none" stroke="#f7f2f8" stroke-width="6" stroke-linecap="round"/><circle cx="30" cy="456" r="4.5" fill="#eadced"/><path d="M30,486 Q4,504 30,522 Q54,504 30,486" fill="none" stroke="#f7f2f8" stroke-width="6" stroke-linecap="round"/><circle cx="30" cy="504" r="4.5" fill="#eadced"/><path d="M30,534 Q4,552 30,570 Q54,552 30,534" fill="none" stroke="#f7f2f8" stroke-width="6" stroke-linecap="round"/><circle cx="30" cy="552" r="4.5" fill="#eadced"/><path d="M30,582 Q4,600 30,618 Q54,600 30,582" fill="none" stroke="#f7f2f8" stroke-width="6" stroke-linecap="round"/><circle cx="30" cy="600" r="4.5" fill="#eadced"/><path d="M30,630 Q4,648 30,666 Q54,648 30,630" fill="none" stroke="#f7f2f8" stroke-width="6" stroke-linecap="round"/><circle cx="30" cy="648" r="4.5" fill="#eadced"/><path d="M30,678 Q4,696 30,714 Q54,696 30,678" fill="none" stroke="#f7f2f8" stroke-width="6" stroke-linecap="round"/><circle cx="30" cy="696" r="4.5" fill="#eadced"/><path d="M30,726 Q4,744 30,762 Q54,744 30,726" fill="none" stroke="#f7f2f8" stroke-width="6" stroke-linecap="round"/><circle cx="30" cy="744" r="4.5" fill="#eadced"/><path d="M30,774 Q4,792 30,810 Q54,792 30,774" fill="none" stroke="#f7f2f8" stroke-width="6" stroke-linecap="round"/><circle cx="30" cy="792" r="4.5" fill="#eadced"/><path d="M30,822 Q4,840 30,858 Q54,840 30,822" fill="none" stroke="#f7f2f8" stroke-width="6" stroke-linecap="round"/><circle cx="30" cy="840" r="4.5" fill="#eadced"/><path d="M30,870 Q4,888 30,906 Q54,888 30,870" fill="none" stroke="#f7f2f8" stroke-width="6" stroke-linecap="round"/><circle cx="30" cy="888" r="4.5" fill="#eadced"/><path d="M30,918 Q4,936 30,954 Q54,936 30,918" fill="none" stroke="#f7f2f8" stroke-width="6" stroke-linecap="round"/><circle cx="30" cy="936" r="4.5" fill="#eadced"/><path d="M30,966 Q4,984 30,1002 Q54,984 30,966" fill="none" stroke="#f7f2f8" stroke-width="6" stroke-linecap="round"/><circle cx="30" cy="984" r="4.5" fill="#eadced"/><path d="M30,1014 Q4,1032 30,1050 Q54,1032 30,1014" fill="none" stroke="#f7f2f8" stroke-width="6" stroke-linecap="round"/><circle cx="30" cy="1032" r="4.5" fill="#eadced"/><path d="M30,1062 Q4,1080 30,1098 Q54,1080 30,1062" fill="none" stroke="#f7f2f8" stroke-width="6" stroke-linecap="round"/><circle cx="30" cy="1080" r="4.5" fill="#eadced"/><path d="M30,1110 Q4,1128 30,1146 Q54,1128 30,1110" fill="none" stroke="#f7f2f8" stroke-width="6" stroke-linecap="round"/><circle cx="30" cy="1128" r="4.5" fill="#eadced"/><path d="M30,1158 Q4,1176 30,1194 Q54,1176 30,1158" fill="none" stroke="#f7f2f8" stroke-width="6" stroke-linecap="round"/><circle cx="30" cy="1176" r="4.5" fill="#eadced"/><path d="M30,1206 Q4,1224 30,1242 Q54,1224 30,1206" fill="none" stroke="#f7f2f8" stroke-width="6" stroke-linecap="round"/><circle cx="30" cy="1224" r="4.5" fill="#eadced"/><path d="M30,1254 Q4,1272 30,1290 Q54,1272 30,1254" fill="none" stroke="#f7f2f8" stroke-width="6" stroke-linecap="round"/><circle cx="30" cy="1272" r="4.5" fill="#eadced"/><path d="M30,1302 Q4,1320 30,1338 Q54,1320 30,1302" fill="none" stroke="#f7f2f8" stroke-width="6" stroke-linecap="round"/><circle cx="30" cy="1320" r="4.5" fill="#eadced"/><path d="M30,1350 Q4,1368 30,1386 Q54,1368 30,1350" fill="none" stroke="#f7f2f8" stroke-width="6" stroke-linecap="round"/><circle cx="30" cy="1368" r="4.5" fill="#eadced"/><path d="M30,1398 Q4,1416 30,1434 Q54,1416 30,1398" fill="none" stroke="#f7f2f8" stroke-width="6" stroke-linecap="round"/><circle cx="30" cy="1416" r="4.5" fill="#eadced"/><path d="M30,1446 Q4,1464 30,1482 Q54,1464 30,1446" fill="none" stroke="#f7f2f8" stroke-width="6" stroke-linecap="round"/><circle cx="30" cy="1464" r="4.5" fill="#eadced"/><path d="M30,1494 Q4,1512 30,1530 Q54,1512 30,1494" fill="none" stroke="#f7f2f8" stroke-width="6" stroke-linecap="round"/><circle cx="30" cy="1512" r="4.5" fill="#eadced"/><path d="M30,1542 Q4,1560 30,1578 Q54,1560 30,1542" fill="none" stroke="#f7f2f8" stroke-width="6" stroke-linecap="round"/><circle cx="30" cy="1560" r="4.5" fill="#eadced"/>
</g></svg>