<svg xmlns="http://www.w3.org/2000/svg" width="1200" height="72" viewBox="0 0 1200 72">
<defs><filter id="s"><feDropShadow dx="0" dy="2" stdDeviation="2" flood-color="#7e5a86" flood-opacity=".18"/></filter></defs>
<g filter="url(#s)">
<path d="M8,14 H1192" stroke="#efe4f1" stroke-width="8" stroke-linecap="round"/>
<path d="M6,42 Q24,68 42,42 Q24,18 6,42" fill="none" stroke="#f7f2f8" stroke-width="6" stroke-linecap="round"/><circle cx="24" cy="42" r="4.5" fill="#eadced"/><path d="M54,42 Q72,68 90,42 Q72,18 54,42" fill="none" stroke="#f7f2f8" stroke-width="6" stroke-linecap="round"/><circle cx="72" cy="42" r="4.5" fill="#eadced"/><path d="M102,42 Q120,68 138,42 Q120,18 102,42" fill="none" stroke="#f7f2f8" stroke-width="6" stroke-linecap="round"/><circle cx="120" cy="42" r="4.5" fill="#eadced"/><path d="M150,42 Q168,68 186,42 Q168,18 150,42" fill="none" stroke="#f7f2f8" stroke-width="6" stroke-linecap="round"/><circle cx="168" cy="42" r="4.5" fill="#eadced"/><path d="M198,42 Q216,68 234,42 Q216,18 198,42" fill="none" stroke="#f7f2f8" stroke-width="6" stroke-linecap="round"/><circle cx="216" cy="42" r="4.5" fill="#eadced"/><path d="M246,42 Q264,68 282,42 Q264,18 246,42" fill="none" stroke="#f7f2f8" stroke-width="6" stroke-linecap="round"/><circle cx="264" cy="42" r="4.5" fill="#eadced"/><path d="M294,42 Q312,68 330,42 Q312,18 294,42" fill="none" stroke="#f7f2f8" stroke-width="6" stroke-linecap="round"/><circle cx="312" cy="42" r="4.5" fill="#eadced"/><path d="M342,42 Q360,68 378,42 Q360,18 342,42" fill="none" stroke="#f7f2f8" stroke-width="6" stroke-linecap="round"/><circle cx="360" cy="42" r="4.5" fill="#eadced"/><path d="M390,42 Q408,68 426,42 Q408,18 390,42" fill="none" stroke="#f7f2f8" stroke-width="6" stroke-linecap="round"/><circle cx="408" cy="42" r="4.5" fill="#eadced"/><path d="M438,42 Q456,68 474,42 Q456,18 438,42" fill="none" stroke="#f7f2f8" stroke-width="6" stroke-linecap="round"/><circle cx="456" cy="42" r="4.5" fill="#eadced"/><path d="M486,42 Q504,68 522,42 Q504,18 486,42" fill="none" stroke="#f7f2f8" stroke-width="6" stroke-linecap="round"/><circle cx="504" cy="42" r="4.5" fill="#eadced"/><path d="M534,42 Q552,68 570,42 Q552,18 534,42" fill="none" stroke="#f7f2f8" stroke-width="6" stroke-linecap="round"/><circle cx="552" cy="42" r="4.5" fill="#eadced"/><path d="M582,42 Q600,68 618,42 Q600,18 582,42" fill="none" stroke="#f7f2f8" stroke-width="6" stroke-linecap="round"/><circle cx="600" cy="42" r="4.5" fill="#eadced"/><path d="M630,42 Q648,68 666,42 Q648,18 630,42" fill="none" stroke="#f7f2f8" stroke-width="6" stroke-linecap="round"/><circle cx="648" cy="42" r="4.5" fill="#eadced"/><path d="M678,42 Q696,68 714,42 Q696,18 678,42" fill="none" stroke="#f7f2f8" stroke-width="6" stroke-linecap="round"/><circle cx="696" cy="42" r="4.5" fill="#eadced"/><path d="M726,42 Q744,68 762,42 Q744,18 726,42" fill="none" stroke="#f7f2f8" stroke-width="6" stroke-linecap="round"/><circle cx="744" cy="42" r="4.5" fill="#eadced"/><path d="M774,42 Q792,68 810,42 Q792,18 774,42" fill="none" stroke="#f7f2f8" stroke-width="6" stroke-linecap="round"/><circle cx="792" cy="42" r="4.5" fill="#eadced"/><path d="M822,42 Q840,68 858,42 Q840,18 822,42" fill="none" stroke="#f7f2f8" stroke-width="6" stroke-linecap="round"/><circle cx="840" cy="42" r="4.5" fill="#eadced"/><path d="M870,42 Q888,68 906,42 Q888,18 870,42" fill="none" stroke="#f7f2f8" stroke-width="6" stroke-linecap="round"/><circle cx="888" cy="42" r="4.5" fill="#eadced"/><path d="M918,42 Q936,68 954,42 Q936,18 918,42" fill="none" stroke="#f7f2f8" stroke-width="6" stroke-linecap="round"/><circle cx="936" cy="42" r="4.5" fill="#eadced"/><path d="M966,42 Q984,68 1002,42 Q984,18 966,42" fill="none" stroke="#f7f2f8" stroke-width="6" stroke-linecap="round"/><circle cx="984" cy="42" r="4.5" fill="#eadced"/><path d="M1014,42 Q1032,68 1050,42 Q1032,18 1014,42" fill="none" stroke="#f7f2f8" stroke-width="6" stroke-linecap="round"/><circle cx="1032" cy="42" r="4.5" fill="#eadced"/><path d="M1062,42 Q1080,68 1098,42 Q1080,18 1062,42" fill="none" stroke="#f7f2f8" stroke-width="6" stroke-linecap="round"/><circle cx="1080" cy="42" r="4.5" fill="#eadced"/><path d="M1110,42 Q1128,68 1146,42 Q1128,18 1110,42" fill="none" stroke="#f7f2f8" stroke-width="6" stroke-linecap="round"/><circle cx="1128" cy="42" r="4.5" fill="#eadced"/>
</g></svg>