<svg xmlns="http://www.w3.org/2000/svg" width="72" height="1600" viewBox="0 0 72 1600">
<defs><filter id="s"><feDropShadow dx="2" dy="0" stdDeviation="2" flood-color="#7e5a86" flood-opacity=".18"/></filter></defs>
<g filter="url(#s)">
<path d="M14,8 V1592" stroke="#efe4f1" stroke-width="8" stroke-linecap="round"/>
<path d="M42,6 Q68,24 42,42 Q18,24 42,6" fill="none" stroke="#f7f2f8" stroke-width="6" stroke-linecap="round"/><circle cx="42" cy="24" r="4.5" fill="#eadced"/><path d="M42,54 Q68,72 42,90 Q18,72 42,54" fill="none" stroke="#f7f2f8" stroke-width="6" stroke-linecap="round"/><circle cx="42" cy="72" r="4.5" fill="#eadced"/><path d="M42,102 Q68,120 42,138 Q18,120 42,102" fill="none" stroke="#f7f2f8" stroke-width="6" stroke-linecap="round"/><circle cx="42" cy="120" r="4.5" fill="#eadced"/><path d="M42,150 Q68,168 42,186 Q18,168 42,150" fill="none" stroke="#f7f2f8" stroke-width="6" stroke-linecap="round"/><circle cx="42" cy="168" r="4.5" fill="#eadced"/><path d="M42,198 Q68,216 42,234 Q18,216 42,198" fill="none" stroke="#f7f2f8" stroke-width="6" stroke-linecap="round"/><circle cx="42" cy="216" r="4.5" fill="#eadced"/><path d="M42,246 Q68,264 42,282 Q18,264 42,246" fill="none" stroke="#f7f2f8" stroke-width="6" stroke-linecap="round"/><circle cx="42" cy="264" r="4.5" fill="#eadced"/><path d="M42,294 Q68,312 42,330 Q18,312 42,294" fill="none" stroke="#f7f2f8" stroke-width="6" stroke-linecap="round"/><circle cx="42" cy="312" r="4.5" fill="#eadced"/><path d="M42,342 Q68,360 42,378 Q18,360 42,342" fill="none" stroke="#f7f2f8" stroke-width="6" stroke-linecap="round"/><circle cx="42" cy="360" r="4.5" fill="#eadced"/><path d="M42,390 Q68,408 42,426 Q18,408 42,390" fill="none" stroke="#f7f2f8" stroke-width="6" stroke-linecap="round"/><circle cx="42" cy="408" r="4.5" fill="#eadced"/><path d="M42,438 Q68,456 42,474 Q18,456 42,438" fill="none" stroke="#f7f2f8" stroke-width="6" stroke-linecap="round"/><circle cx="42" cy="456" r="4.5" fill="#eadced"/><path d="M42,486 Q68,504 42,522 Q18,504 42,486" fill="none" stroke="#f7f2f8" stroke-width="6" stroke-linecap="round"/><circle cx="42" cy="504" r="4.5" fill="#eadced"/><path d="M42,534 Q68,552 42,570 Q18,552 42,534" fill="none" stroke="#f7f2f8" stroke-width="6" stroke-linecap="round"/><circle cx="42" cy="552" r="4.5" fill="#eadced"/><path d="M42,582 Q68,600 42,618 Q18,600 42,582" fill="none" stroke="#f7f2f8" stroke-width="6" stroke-linecap="round"/><circle cx="42" cy="600" r="4.5" fill="#eadced"/><path d="M42,630 Q68,648 42,666 Q18,648 42,630" fill="none" stroke="#f7f2f8" stroke-width="6" stroke-linecap="round"/><circle cx="42" cy="648" r="4.5" fill="#eadced"/><path d="M42,678 Q68,696 42,714 Q18,696 42,678" fill="none" stroke="#f7f2f8" stroke-width="6" stroke-linecap="round"/><circle cx="42" cy="696" r="4.5" fill="#eadced"/><path d="M42,726 Q68,744 42,762 Q18,744 42,726" fill="none" stroke="#f7f2f8" stroke-width="6" stroke-linecap="round"/><circle cx="42" cy="744" r="4.5" fill="#eadced"/><path d="M42,774 Q68,792 42,810 Q18,792 42,774" fill="none" stroke="#f7f2f8" stroke-width="6" stroke-linecap="round"/><circle cx="42" cy="792" r="4.5" fill="#eadced"/><path d="M42,822 Q68,840 42,858 Q18,840 42,822" fill="none" stroke="#f7f2f8" stroke-width="6" stroke-linecap="round"/><circle cx="42" cy="840" r="4.5" fill="#eadced"/><path d="M42,870 Q68,888 42,906 Q18,888 42,870" fill="none" stroke="#f7f2f8" stroke-width="6" stroke-linecap="round"/><circle cx="42" cy="888" r="4.5" fill="#eadced"/><path d="M42,918 Q68,936 42,954 Q18,936 42,918" fill="none" stroke="#f7f2f8" stroke-width="6" stroke-linecap="round"/><circle cx="42" cy="936" r="4.5" fill="#eadced"/><path d="M42,966 Q68,984 42,1002 Q18,984 42,966" fill="none" stroke="#f7f2f8" stroke-width="6" stroke-linecap="round"/><circle cx="42" cy="984" r="4.5" fill="#eadced"/><path d="M42,1014 Q68,1032 42,1050 Q18,1032 42,1014" fill="none" stroke="#f7f2f8" stroke-width="6" stroke-linecap="round"/><circle cx="42" cy="1032" r="4.5" fill="#eadced"/><path d="M42,1062 Q68,1080 42,1098 Q18,1080 42,1062" fill="none" stroke="#f7f2f8" stroke-width="6" stroke-linecap="round"/><circle cx="42" cy="1080" r="4.5" fill="#eadced"/><path d="M42,1110 Q68,1128 42,1146 Q18,1128 42,1110" fill="none" stroke="#f7f2f8" stroke-width="6" stroke-linecap="round"/><circle cx="42" cy="1128" r="4.5" fill="#eadced"/><path d="M42,1158 Q68,1176 42,1194 Q18,1176 42,1158" fill="none" stroke="#f7f2f8" stroke-width="6" stroke-linecap="round"/><circle cx="42" cy="1176" r="4.5" fill="#eadced"/><path d="M42,1206 Q68,1224 42,1242 Q18,1224 42,1206" fill="none" stroke="#f7f2f8" stroke-width="6" stroke-linecap="round"/><circle cx="42" cy="1224" r="4.5" fill="#eadced"/><path d="M42,1254 Q68,1272 42,1290 Q18,1272 42,1254" fill="none" stroke="#f7f2f8" stroke-width="6" stroke-linecap="round"/><circle cx="42" cy="1272" r="4.5" fill="#eadced"/><path d="M42,1302 Q68,1320 42,1338 Q18,1320 42,1302" fill="none" stroke="#f7f2f8" stroke-width="6" stroke-linecap="round"/><circle cx="42" cy="1320" r="4.5" fill="#eadced"/><path d="M42,1350 Q68,1368 42,1386 Q18,1368 42,1350" fill="none" stroke="#f7f2f8" stroke-width="6" stroke-linecap="round"/><circle cx="42" cy="1368" r="4.5" fill="#eadced"/><path d="M42,1398 Q68,1416 42,1434 Q18,1416 42,1398" fill="none" stroke="#f7f2f8" stroke-width="6" stroke-linecap="round"/><circle cx="42" cy="1416" r="4.5" fill="#eadced"/><path d="M42,1446 Q68,1464 42,1482 Q18,1464 42,1446" fill="none" stroke="#f7f2f8" stroke-width="6" stroke-linecap="round"/><circle cx="42" cy="1464" r="4.5" fill="#eadced"/><path d="M42,1494 Q68,1512 42,1530 Q18,1512 42,1494" fill="none" stroke="#f7f2f8" stroke-width="6" stroke-linecap="round"/><circle cx="42" cy="1512" r="4.5" fill="#eadced"/><path d="M42,1542 Q68,1560 42,1578 Q18,1560 42,1542" fill="none" stroke="#f7f2f8" stroke-width="6" stroke-linecap="round"/><circle cx="42" cy="1560" r="4.5" fill="#eadced"/>
</g></svg>