<svg xmlns="http://www.w3.org/2000/svg" width="1200" height="72" viewBox="0 0 1200 72">
<defs><filter id="s"><feDropShadow dx="0" dy="2" stdDeviation="2" flood-color="#7e5a86" flood-opacity=".18"/></filter></defs>
<g filter="url(#s)">
<path d="M8,58 H1192" stroke="#efe4f1" stroke-width="8" stroke-linecap="round"/>
<path d="M6,30 Q24,4 42,30 Q24,54 6,30" fill="none" stroke="#f7f2f8" stroke-width="6" stroke-linecap="round"/><circle cx="24" cy="30" r="4.5" fill="#eadced"/><path d="M54,30 Q72,4 90,30 Q72,54 54,30" fill="none" stroke="#f7f2f8" stroke-width="6" stroke-linecap="round"/><circle cx="72" cy="30" r="4.5" fill="#eadced"/><path d="M102,30 Q120,4 138,30 Q120,54 102,30" fill="none" stroke="#f7f2f8" stroke-width="6" stroke-linecap="round"/><circle cx="120" cy="30" r="4.5" fill="#eadced"/><path d="M150,30 Q168,4 186,30 Q168,54 150,30" fill="none" stroke="#f7f2f8" stroke-width="6" stroke-linecap="round"/><circle cx="168" cy="30" r="4.5" fill="#eadced"/><path d="M198,30 Q216,4 234,30 Q216,54 198,30" fill="none" stroke="#f7f2f8" stroke-width="6" stroke-linecap="round"/><circle cx="216" cy="30" r="4.5" fill="#eadced"/><path d="M246,30 Q264,4 282,30 Q264,54 246,30" fill="none" stroke="#f7f2f8" stroke-width="6" stroke-linecap="round"/><circle cx="264" cy="30" r="4.5" fill="#eadced"/><path d="M294,30 Q312,4 330,30 Q312,54 294,30" fill="none" stroke="#f7f2f8" stroke-width="6" stroke-linecap="round"/><circle cx="312" cy="30" r="4.5" fill="#eadced"/><path d="M342,30 Q360,4 378,30 Q360,54 342,30" fill="none" stroke="#f7f2f8" stroke-width="6" stroke-linecap="round"/><circle cx="360" cy="30" r="4.5" fill="#eadced"/><path d="M390,30 Q408,4 426,30 Q408,54 390,30" fill="none" stroke="#f7f2f8" stroke-width="6" stroke-linecap="round"/><circle cx="408" cy="30" r="4.5" fill="#eadced"/><path d="M438,30 Q456,4 474,30 Q456,54 438,30" fill="none" stroke="#f7f2f8" stroke-width="6" stroke-linecap="round"/><circle cx="456" cy="30" r="4.5" fill="#eadced"/><path d="M486,30 Q504,4 522,30 Q504,54 486,30" fill="none" stroke="#f7f2f8" stroke-width="6" stroke-linecap="round"/><circle cx="504" cy="30" r="4.5" fill="#eadced"/><path d="M534,30 Q552,4 570,30 Q552,54 534,30" fill="none" stroke="#f7f2f8" stroke-width="6" stroke-linecap="round"/><circle cx="552" cy="30" r="4.5" fill="#eadced"/><path d="M582,30 Q600,4 618,30 Q600,54 582,30" fill="none" stroke="#f7f2f8" stroke-width="6" stroke-linecap="round"/><circle cx="600" cy="30" r="4.5" fill="#eadced"/><path d="M630,30 Q648,4 666,30 Q648,54 630,30" fill="none" stroke="#f7f2f8" stroke-width="6" stroke-linecap="round"/><circle cx="648" cy="30" r="4.5" fill="#eadced"/><path d="M678,30 Q696,4 714,30 Q696,54 678,30" fill="none" stroke="#f7f2f8" stroke-width="6" stroke-linecap="round"/><circle cx="696" cy="30" r="4.5" fill="#eadced"/><path d="M726,30 Q744,4 762,30 Q744,54 726,30" fill="none" stroke="#f7f2f8" stroke-width="6" stroke-linecap="round"/><circle cx="744" cy="30" r="4.5" fill="#eadced"/><path d="M774,30 Q792,4 810,30 Q792,54 774,30" fill="none" stroke="#f7f2f8" stroke-width="6" stroke-linecap="round"/><circle cx="792" cy="30" r="4.5" fill="#eadced"/><path d="M822,30 Q840,4 858,30 Q840,54 822,30" fill="none" stroke="#f7f2f8" stroke-width="6" stroke-linecap="round"/><circle cx="840" cy="30" r="4.5" fill="#eadced"/><path d="M870,30 Q888,4 906,30 Q888,54 870,30" fill="none" stroke="#f7f2f8" stroke-width="6" stroke-linecap="round"/><circle cx="888" cy="30" r="4.5" fill="#eadced"/><path d="M918,30 Q936,4 954,30 Q936,54 918,30" fill="none" stroke="#f7f2f8" stroke-width="6" stroke-linecap="round"/><circle cx="936" cy="30" r="4.5" fill="#eadced"/><path d="M966,30 Q984,4 1002,30 Q984,54 966,30" fill="none" stroke="#f7f2f8" stroke-width="6" stroke-linecap="round"/><circle cx="984" cy="30" r="4.5" fill="#eadced"/><path d="M1014,30 Q1032,4 1050,30 Q1032,54 1014,30" fill="none" stroke="#f7f2f8" stroke-width="6" stroke-linecap="round"/><circle cx="1032" cy="30" r="4.5" fill="#eadced"/><path d="M1062,30 Q1080,4 1098,30 Q1080,54 1062,30" fill="none" stroke="#f7f2f8" stroke-width="6" stroke-linecap="round"/><circle cx="1080" cy="30" r="4.5" fill="#eadced"/><path d="M1110,30 Q1128,4 1146,30 Q1128,54 1110,30" fill="none" stroke="#f7f2f8" stroke-width="6" stroke-linecap="round"/><circle cx="1128" cy="30" r="4.5" fill="#eadced"/>
</g></svg>